<svg width="54" height="53" viewBox="0 0 54 53" fill="none" xmlns="http://www.w3.org/2000/svg">
<path d="M24.9613 0H26.6674C26.7212 0.0248401 26.7775 0.0438083 26.8353 0.0565762C27.013 0.0745149 27.1933 0.0772772 27.371 0.0979756C27.8502 0.153171 28.3348 0.200088 28.8085 0.274602C29.7161 0.414838 30.6146 0.60929 31.4991 0.856918C32.598 1.16969 33.633 1.67519 34.5559 2.34996C35.148 2.77773 35.6767 3.27725 36.2289 3.75194C36.8348 4.29222 37.4995 4.7625 38.2103 5.15391C38.4788 5.2919 38.7611 5.41195 39.0255 5.56788C39.6547 5.93355 40.3046 6.25783 40.9656 6.55864C41.5063 6.80611 42.0428 7.06369 42.5752 7.33139C43.2223 7.67909 43.8473 8.06666 44.4465 8.49188C44.9962 8.85626 45.4953 9.29196 45.9309 9.7876C46.525 10.4595 46.9661 11.2529 47.2238 12.1127C47.3984 12.7342 47.4787 13.3785 47.462 14.0239C47.4578 14.4491 47.559 14.8688 47.7567 15.2451C48.0362 15.7442 48.4298 16.1698 48.9051 16.487C49.4944 16.9134 50.0961 17.3218 50.6786 17.7593C51.3006 18.2152 51.845 18.7687 52.291 19.3986C52.6529 19.8823 52.8801 20.4538 52.9492 21.0545C52.9492 21.0821 52.985 21.1083 53.0029 21.1345V21.801C52.9796 21.8301 52.9611 21.8627 52.9478 21.8976C52.9313 21.979 52.9354 22.0645 52.9161 22.1446C52.8046 22.6027 52.6779 23.0567 52.5774 23.5176C52.3199 24.6891 52.0748 25.8634 51.8228 27.0363C51.7634 27.3623 51.6861 27.6847 51.5915 28.0022C51.4538 28.4162 51.2748 28.8177 51.1165 29.2248C50.8071 29.9605 50.5486 30.7166 50.3426 31.4878C50.2283 31.9667 50.1416 32.4538 49.9832 32.9188C49.6059 34.0227 49.2011 35.1156 48.7935 36.2071C48.3597 37.2951 47.8589 38.355 47.294 39.3808C47.1481 39.6793 46.9868 39.9699 46.8107 40.2516C46.4279 40.8293 46.0346 41.4006 45.6307 41.9654C44.6489 43.3453 43.6561 44.7252 42.3935 45.8664C41.9721 46.2486 41.548 46.6281 41.1088 46.9868C40.5572 47.4084 39.9622 47.7697 39.3339 48.0645C38.7625 48.3498 38.2106 48.6724 37.6816 49.0305C37.4698 49.1749 37.2431 49.2961 37.0055 49.392C36.5717 49.5714 36.1173 49.7052 35.6877 49.8957C34.5552 50.398 33.3777 50.7917 32.171 51.0713C31.3834 51.2521 30.5917 51.4122 29.7985 51.5639C29.2698 51.6647 28.7383 51.7502 28.204 51.8123C27.7593 51.8648 27.309 51.8799 26.8601 51.9006C26.3837 51.9227 25.9059 51.9296 25.4295 51.9489C25.3808 51.9595 25.3343 51.9781 25.2918 52.0041H24.9173C24.8803 51.9799 24.8399 51.9613 24.7975 51.9489C24.7286 51.9393 24.6598 51.9489 24.5895 51.9489L23.3131 51.8289C23.0171 51.7999 22.721 51.7792 22.4277 51.7337C21.877 51.6481 21.3386 51.5557 20.7974 51.4494C20.0495 51.3129 19.3161 51.1064 18.6067 50.8326C17.9403 50.5566 17.2628 50.3193 16.584 50.0806C15.6355 49.7515 14.7173 49.3406 13.8397 48.8525C13.3385 48.5765 12.8455 48.2688 12.3251 48.0245C11.9703 47.8518 11.6288 47.653 11.3034 47.4298C11.0617 47.2666 10.8466 47.0669 10.6658 46.8378C10.4648 46.5811 10.2528 46.3286 10.0517 46.0761C9.7881 45.7521 9.60879 45.3675 9.52986 44.957C9.45284 44.4916 9.42377 44.0195 9.44311 43.5481C9.4475 43.2155 9.43326 42.8829 9.40042 42.5518C9.36632 42.1834 9.20515 41.8385 8.94465 41.5763C8.75694 41.3914 8.54248 41.2361 8.30851 41.1154C7.82244 40.8491 7.34464 40.5786 6.85445 40.3109C6.44825 40.086 6.05995 39.8224 5.61519 39.6955C5.15632 39.5614 4.71595 39.3704 4.30434 39.1269C3.66641 38.7355 3.06378 38.289 2.50329 37.7926C2.0244 37.3881 1.65104 36.8728 1.4155 36.2913C1.27781 35.9656 1.15663 35.6317 1.05199 35.295C0.740796 34.2959 0.638904 33.2596 0.559041 32.2233C0.50534 31.5044 0.472293 30.7841 0.421346 30.0652C0.399315 29.7616 0.35112 29.4608 0.316696 29.1572C0.268503 28.7432 0.221687 28.3293 0.179002 27.9153C0.145955 27.6048 0.121172 27.2943 0.0908791 26.9839C0.0908791 26.9259 0.0908786 26.8459 0 26.8459V26.0538C0.027539 26.0276 0.0743547 26.0055 0.0812394 25.9738C0.0977628 25.8938 0.092254 25.8082 0.106023 25.7268C0.257311 24.7334 0.770411 23.8313 1.54631 23.1947C2.06267 22.7655 2.62722 22.3943 3.1656 21.9928C3.4823 21.7582 3.80864 21.5305 4.1033 21.2697C4.37869 21.031 4.36217 20.7978 4.11983 20.5287C4.09691 20.5025 4.07255 20.4777 4.04685 20.4542C3.5021 19.9283 2.90189 19.4633 2.25682 19.0674C1.7489 18.779 1.30627 18.3881 0.956976 17.9193C0.459898 17.2294 0.221688 16.4773 0.391053 15.6259C0.508093 15.0381 0.753189 14.522 1.24201 14.1439C1.29704 14.103 1.34377 14.052 1.3797 13.9935C1.66554 13.5239 2.03139 13.1083 2.46061 12.7654C2.91913 12.3735 3.36113 11.9623 3.83755 11.5884C4.22698 11.2758 4.58822 10.9295 4.91708 10.5534C5.0263 10.4279 5.11886 10.2888 5.19247 10.1395C5.388 9.75587 5.57802 9.36811 5.74325 8.97484C5.94442 8.55305 6.04438 8.08995 6.03516 7.62255C6.02467 7.33666 6.1031 7.05457 6.25961 6.81531C6.72604 6.04853 7.30644 5.35754 7.98079 4.76616C8.55521 4.26173 9.20588 3.85187 9.90852 3.55185C10.9775 3.11396 12.0702 2.73666 13.1815 2.42172C14.1913 2.1209 15.2047 1.82055 16.2218 1.52065C16.9186 1.31642 17.6139 1.10668 18.3134 0.923151C19.182 0.695461 20.0647 0.525822 20.9558 0.41535C21.709 0.318757 22.4608 0.213885 23.2153 0.139371C23.7303 0.0869348 24.2494 0.0786564 24.7672 0.0455389C24.8334 0.0376658 24.8985 0.0223895 24.9613 0ZM25.099 2.82051C24.3637 2.79981 23.6279 2.82562 22.8959 2.89778C22.3754 2.9585 21.8508 2.99438 21.3331 3.07165C20.7547 3.15858 20.1764 3.26759 19.605 3.39454C19.1189 3.50218 18.6411 3.64983 18.1619 3.77402C17.6277 3.91201 17.0879 4.03344 16.555 4.17971C15.0762 4.59367 13.6015 5.00764 12.1226 5.42161C11.6296 5.5413 11.1725 5.77792 10.7898 6.11156C10.5573 6.32073 10.2846 6.47994 9.98838 6.57935C9.82652 6.64023 9.67366 6.72286 9.53399 6.82497C9.24483 7.02367 9.10576 7.33001 9.00524 7.6529C8.75188 8.46014 8.49439 9.266 8.26306 10.0801C8.03115 10.8844 7.59793 11.6159 7.00453 12.2052C6.50333 12.7144 5.98009 13.2015 5.46098 13.6927C5.00245 14.126 4.52878 14.5427 4.08403 14.9857C3.84835 15.22 3.63236 15.4734 3.43824 15.7432C3.24547 16.0109 3.28815 16.2372 3.52361 16.4691C3.54839 16.4925 3.57456 16.5146 3.6021 16.5367C4.24467 17.0279 4.89 17.5196 5.53809 18.0118C5.86167 18.2602 6.21279 18.4754 6.49369 18.779C6.81974 19.1122 7.0586 19.521 7.18904 19.969C7.31948 20.417 7.33745 20.8903 7.24137 21.347C7.11607 22.0273 6.75255 22.5779 6.28439 23.0691C5.78454 23.5598 5.23753 23.9998 4.65133 24.3828C4.27129 24.6505 3.89401 24.9223 3.52499 25.2107C3.24007 25.4067 3.0379 25.7018 2.95768 26.0386C2.92097 26.2362 2.90207 26.4366 2.90123 26.6375C2.89021 27.1522 2.88471 27.6669 2.89159 28.1802C2.89159 28.5335 2.91913 28.8881 2.94529 29.24C2.97696 29.6402 3.01965 30.0403 3.05958 30.4405C3.09125 30.751 3.12292 31.0601 3.16009 31.3706C3.22068 31.8866 3.28815 32.4013 3.34873 32.9174C3.39809 33.4565 3.49626 33.9899 3.64203 34.5112C3.87611 35.2715 4.28506 35.9132 4.96941 36.3396C5.42481 36.6306 5.89498 36.8977 6.37802 37.1399C7.13121 37.507 7.90368 37.8298 8.66651 38.179C9.01213 38.3363 9.35498 38.4949 9.7006 38.6605C10.283 38.9365 10.7154 39.4029 11.1354 39.8776C11.4873 40.2589 11.771 40.6982 11.9739 41.1761C12.181 41.6863 12.2544 42.2411 12.1874 42.7878C12.1559 43.0279 12.1444 43.2702 12.1529 43.5123C12.173 43.7119 12.2079 43.9098 12.2576 44.1042C12.2958 44.3679 12.429 44.6084 12.6321 44.7804C12.7244 44.8535 12.8056 44.9404 12.8937 45.0191C13.2216 45.3389 13.581 45.6246 13.9664 45.8719C14.7409 46.3179 15.544 46.7121 16.3705 47.0517C17.7613 47.6216 19.2043 48.0328 20.6391 48.4688C21.4452 48.7145 22.2721 48.8859 23.1093 48.9808C23.6645 49.054 24.2237 49.0923 24.7837 49.0953C25.0797 49.0953 25.3772 49.0636 25.6732 49.0594C26.6081 49.0484 27.5431 49.0857 28.4753 48.978C28.9922 48.9265 29.5055 48.8426 30.012 48.7269C30.8381 48.5309 31.6492 48.3281 32.4684 48.1308C33.6135 47.854 34.7158 47.4233 35.7456 46.8502C36.1687 46.6144 36.604 46.4011 37.0495 46.2113C37.9516 45.8393 38.7844 45.3173 39.5129 44.6672C39.9659 44.2533 40.4231 43.8531 40.8692 43.4364C41.1928 43.1342 41.5136 42.8251 41.8138 42.498C42.5395 41.6843 43.1906 40.8069 43.7594 39.8762C44.5484 38.6343 45.3457 37.3828 45.9625 36.0346C46.0837 35.7919 46.1761 35.5358 46.2379 35.2715C46.2788 35.0599 46.3576 34.8574 46.4706 34.674C46.7541 34.2041 46.971 33.697 47.115 33.1672C47.2748 32.6152 47.418 32.0633 47.5846 31.5113C47.8407 30.6544 48.1147 29.803 48.3749 28.9461C48.7582 27.7145 49.0618 26.4594 49.2837 25.1886C49.3863 24.551 49.559 23.9267 49.7987 23.3271C49.9447 22.9684 50.0741 22.5999 50.2049 22.2356C50.2791 22.0318 50.2999 21.8123 50.2655 21.5981C50.2267 21.2801 50.1188 20.9744 49.9494 20.7026C49.7801 20.4308 49.5533 20.1995 49.2851 20.025C48.7798 19.6939 48.2758 19.3627 47.7815 19.0177C47.0833 18.5383 46.4461 17.9753 45.884 17.3411C45.4076 16.7892 45.0386 16.1834 44.9037 15.4604C44.8183 15.005 44.766 14.5441 44.704 14.0805C44.6517 13.6665 44.6338 13.2373 44.5663 12.8192C44.5328 12.5144 44.4397 12.2192 44.2923 11.9504C44.1448 11.6817 43.946 11.4447 43.7071 11.2531C43.4754 11.0763 43.2305 10.9176 42.9746 10.7784C41.5104 9.97527 40.0439 9.17677 38.5752 8.38287C37.5774 7.83919 36.58 7.29413 35.5831 6.74769C35.2837 6.58601 35.016 6.37143 34.7927 6.11432C34.5898 5.88685 34.3723 5.67297 34.1414 5.47405C33.6113 5.00212 33.0055 4.63231 32.4161 4.24042C31.6594 3.74629 30.8197 3.39334 29.9376 3.1986C29.2971 3.0555 28.645 2.97052 27.9892 2.9447C27.7758 2.93366 27.5624 2.91572 27.3489 2.90054C26.9978 2.87571 26.6467 2.83845 26.2956 2.82741C25.9045 2.81085 25.5025 2.82051 25.1004 2.82051H25.099Z" fill="#6761D7"/>
<path d="M12.0993 29.3504C12.9117 29.2897 13.658 29.603 14.374 30.0211C14.4883 30.0873 14.6039 30.1508 14.7141 30.2225C14.8465 30.3004 14.9556 30.4123 15.0302 30.5468C15.1048 30.6812 15.1421 30.8332 15.1382 30.987C15.1432 31.1251 15.14 31.2633 15.1286 31.401C15.0528 32.0523 14.6397 32.4635 13.9871 32.5573C13.8569 32.5751 13.7293 32.6085 13.607 32.6567C13.4858 32.7015 13.3799 32.7804 13.3023 32.8839C13.2246 32.9874 13.1784 33.1112 13.1692 33.2404C13.1414 33.5437 13.1665 33.8495 13.2435 34.1442C13.3355 34.5952 13.5282 35.0195 13.8072 35.3851C14.0862 35.7508 14.4443 36.0484 14.8545 36.2554C15.5031 36.6004 16.1585 36.9316 16.8236 37.2407C18.4514 37.9769 20.0356 38.8062 21.5685 39.7245C22.3835 40.2389 23.2413 40.6816 24.1324 41.0478C24.2866 41.1085 24.4464 41.1568 24.5992 41.2217C24.865 41.3348 25.1348 41.4439 25.391 41.5777C25.7391 41.7653 26.122 41.8789 26.5159 41.9116C26.979 41.9283 27.4422 41.8819 27.8929 41.7737C28.7493 41.6081 29.603 41.4356 30.4416 41.1886C31.5319 40.8855 32.5583 40.3866 33.4709 39.7162C33.8877 39.4129 34.2231 39.0109 34.4471 38.5461C34.5663 38.2871 34.7236 38.0475 34.9139 37.8354C35.3119 37.3939 35.6024 36.8778 35.8957 36.3686C36.2344 35.7877 36.5635 35.2012 36.8995 34.6189C37.0801 34.2901 37.2061 33.934 37.2726 33.5646C37.3017 33.449 37.2984 33.3276 37.2632 33.2137C37.228 33.0998 37.1622 32.9978 37.073 32.9189C36.8609 32.7298 36.6351 32.5573 36.4203 32.3669C36.2197 32.2053 36.059 31.9994 35.9508 31.7653C35.8426 31.5312 35.7898 31.2753 35.7965 31.0174C35.792 30.8744 35.8222 30.7326 35.8846 30.604C35.947 30.4753 36.0396 30.3639 36.1546 30.2791C36.5029 30.028 36.854 29.7782 37.2217 29.5574C37.5497 29.3475 37.9346 29.2448 38.3232 29.2635C38.8476 29.2824 39.3706 29.3285 39.8902 29.4015C40.6721 29.5529 41.3911 29.9343 41.9556 30.4971C42.313 30.8463 42.6401 31.2253 42.9333 31.63C43.0388 31.7681 43.1149 31.9264 43.1566 32.0953C43.1983 32.2641 43.2047 32.4397 43.1756 32.6111C43.1054 33.1258 42.7033 33.7744 41.9529 33.7951C41.7108 33.8018 41.4686 33.7953 41.2272 33.7758C40.8665 33.7482 40.558 33.8503 40.3666 34.1621C40.0513 34.6755 39.7525 35.1998 39.4578 35.7269C38.7694 36.9606 38.0974 38.2108 37.3924 39.4333C36.6948 40.6746 35.6783 41.7061 34.4485 42.4208C33.9748 42.6968 33.5108 42.9852 33.0358 43.257C32.4671 43.5827 31.8433 43.7731 31.2209 43.9649C30.5155 44.1915 29.7917 44.3564 29.0578 44.4575C28.4461 44.535 27.8279 44.5457 27.214 44.4893C26.8767 44.4576 26.5352 44.481 26.1965 44.4658C25.8089 44.4667 25.4223 44.4279 25.0426 44.3499C24.7672 44.2768 24.4849 44.1802 24.2013 44.1209C23.6278 43.9865 23.0749 43.7758 22.5572 43.4944C21.8536 43.1356 21.1499 42.7782 20.4573 42.3974C19.8157 42.0441 19.1795 41.6743 18.5572 41.2865C17.7458 40.754 16.8716 40.3244 15.9547 40.0074C15.3227 39.8045 14.7609 39.4554 14.195 39.1243C13.4577 38.7153 12.7602 38.2381 12.1117 37.6988C11.2955 37.0172 10.7371 36.0757 10.5296 35.0315C10.5089 34.9225 10.4786 34.8148 10.4483 34.7086C10.3037 34.1801 9.9471 33.9138 9.41284 33.8696C9.23246 33.8558 9.05071 33.8696 8.87308 33.8434C8.23142 33.7578 7.86791 33.359 7.70405 32.7574C7.62723 32.5255 7.6159 32.2769 7.67131 32.039C7.72671 31.801 7.8467 31.5831 8.01799 31.4092C8.64175 30.7483 9.32197 30.1673 10.1468 29.7699C10.7513 29.4657 11.4234 29.3213 12.0993 29.3504Z" fill="#5BD5DF"/>
<path d="M17.2697 24.9347C17.2697 24.1178 17.4074 23.4168 17.9031 22.8414C18.1171 22.6245 18.3137 22.391 18.491 22.1432C18.587 21.999 18.6726 21.8482 18.7471 21.6919C18.8556 21.4752 18.8898 21.2287 18.8445 20.9905C18.7992 20.7523 18.6769 20.5357 18.4965 20.3741C18.3029 20.1862 18.0928 20.0163 17.8686 19.8663C16.9048 19.1888 15.9327 18.5237 14.9702 17.8434C14.7631 17.6934 14.5733 17.5207 14.4042 17.3287C13.8204 16.6801 13.7378 15.9198 13.9609 15.1098C14.0305 14.8998 14.1229 14.6981 14.2363 14.5082C14.374 14.2515 14.5378 14.01 14.6645 13.7479C14.9412 13.194 15.3201 12.6977 15.7812 12.2852C16.2259 11.8712 16.6969 11.4821 17.1581 11.0874C17.2628 10.9977 17.3826 10.926 17.4941 10.8432C17.7629 10.6546 18.0878 10.5635 18.4152 10.5848C18.7426 10.6062 19.053 10.7387 19.2952 10.9605C19.7128 11.3223 19.9796 11.8281 20.0428 12.3776C20.0802 12.7924 20.0603 13.2103 19.9836 13.6195C19.9258 14.0432 19.8267 14.4668 19.8088 14.8932C19.7915 15.168 19.8301 15.4435 19.9221 15.703C20.0142 15.9625 20.1579 16.2006 20.3444 16.4028C20.4938 16.5756 20.6667 16.7266 20.858 16.8512C21.322 17.1272 21.7489 17.4625 22.1854 17.7785C22.6907 18.1428 23.2098 18.4906 23.7 18.87C24.0067 19.1031 24.2574 19.4022 24.4336 19.7451C24.6098 20.088 24.7071 20.4662 24.7184 20.8518C24.7296 21.2374 24.6544 21.6206 24.4985 21.9732C24.3425 22.3259 24.1097 22.639 23.8171 22.8897C22.6398 23.9205 21.4432 24.9292 20.2563 25.9489C19.8376 26.3063 19.3355 26.5517 18.7967 26.6623C18.6238 26.7019 18.4443 26.7033 18.2708 26.6663C18.0973 26.6294 17.9339 26.555 17.792 26.4484C17.6501 26.3417 17.533 26.2054 17.449 26.0488C17.365 25.8923 17.316 25.7193 17.3055 25.5418C17.2903 25.31 17.2793 25.0823 17.2697 24.9347Z" fill="#5BD5DF"/>
<path d="M34.7294 13.3726C34.6916 13.38 34.6581 13.4018 34.636 13.4335C34.6139 13.4652 34.6049 13.5042 34.611 13.5423C34.611 14.2088 34.5986 14.8767 34.6179 15.5432C34.6231 15.7764 34.6778 16.0059 34.7785 16.2162C34.8792 16.4266 35.0235 16.613 35.2017 16.763C35.7828 17.2763 36.368 17.7869 36.9325 18.3168C37.5273 18.8602 38.008 19.5169 38.3467 20.2486C38.4863 20.527 38.5453 20.8391 38.5168 21.1493C38.4883 21.4596 38.3736 21.7557 38.1856 22.0039C37.7986 22.5365 37.3814 23.0457 36.967 23.5576C36.7591 23.8157 36.5291 24.0544 36.3115 24.3055C36.2698 24.3517 36.2367 24.4049 36.2138 24.4628C36.0351 24.8956 35.7406 25.2704 35.3628 25.546C34.9429 25.8634 34.5174 26.1753 34.0864 26.4761C33.9704 26.5514 33.8416 26.6048 33.7064 26.6334C33.4791 26.6863 33.2426 26.6843 33.0163 26.6274C32.7901 26.5705 32.5805 26.4605 32.4051 26.3064C32.1965 26.1477 32.0273 25.9428 31.9107 25.7078C31.7942 25.4727 31.7334 25.2138 31.7332 24.9513C31.7332 24.0268 31.8489 23.1105 32.4051 22.3143C32.5874 22.0497 32.6889 21.7375 32.6971 21.416C32.7028 21.1511 32.6387 20.8893 32.5112 20.6571C32.3377 20.3218 32.0568 20.0844 31.7745 19.8485C31.053 19.2441 30.3287 18.642 29.6017 18.0422C29.3296 17.8172 29.1109 17.5344 28.9614 17.2142C28.7492 16.7604 28.6258 16.2699 28.5979 15.7695C28.5707 15.2393 28.7072 14.7136 28.9889 14.264C29.3036 13.7409 29.6694 13.2505 30.0809 12.8C30.4678 12.3653 30.8671 11.9417 31.2705 11.5208C31.4661 11.3166 31.6836 11.1261 31.8929 10.9398C32.0484 10.7897 32.2365 10.6775 32.4424 10.6122C32.6482 10.5468 32.8664 10.5301 33.0799 10.5631C33.4124 10.6324 33.7259 10.7737 33.9983 10.9771C34.1792 11.0999 34.3284 11.264 34.4335 11.4559C34.5386 11.6479 34.5966 11.8622 34.6028 12.081C34.6303 12.5157 34.6854 12.9297 34.7294 13.3726Z" fill="#5BD5DF"/>
</svg>
