<?xml version="1.0" standalone="no"?>
<!DOCTYPE svg PUBLIC "-//W3C//DTD SVG 20010904//EN"
 "http://www.w3.org/TR/2001/REC-SVG-20010904/DTD/svg10.dtd">
<svg version="1.0" xmlns="http://www.w3.org/2000/svg"
 width="260.000000pt" height="260.000000pt" viewBox="0 0 260.000000 260.000000"
 preserveAspectRatio="xMidYMid meet">
<metadata>
Created by potrace 1.14, written by Peter Selinger 2001-2017
</metadata>
<g transform="translate(0.000000,260.000000) scale(0.100000,-0.100000)"
fill="#000000" stroke="none">
<path d="M1020 2580 c-107 -16 -383 -92 -509 -140 -117 -45 -221 -149 -221
-222 0 -59 -40 -121 -139 -218 -116 -112 -132 -135 -133 -189 -1 -52 26 -97
82 -139 76 -56 110 -91 104 -104 -2 -7 -36 -35 -73 -63 -109 -80 -136 -132
-126 -250 3 -38 8 -77 10 -85 2 -8 6 -58 10 -110 10 -153 27 -227 67 -282 23
-33 132 -112 168 -123 41 -12 144 -73 169 -99 22 -23 23 -28 30 -168 1 -9 18
-38 39 -65 70 -88 357 -222 552 -256 122 -22 315 -15 450 17 116 26 276 85
320 116 15 11 31 20 34 20 2 0 33 16 66 36 126 74 300 287 388 475 37 79 56
134 145 404 38 118 97 371 97 419 0 69 -68 155 -175 222 -59 38 -84 79 -90
149 -13 166 -75 234 -325 360 -133 67 -181 98 -247 160 -54 50 -164 107 -238
124 -27 6 -61 14 -75 17 -61 14 -270 11 -380 -6z m380 -131 c82 -11 173 -57
247 -124 36 -31 130 -92 243 -155 102 -56 197 -111 211 -121 29 -20 45 -66 54
-152 3 -32 10 -69 16 -84 18 -47 71 -104 149 -158 71 -51 100 -85 100 -121 0
-8 -9 -40 -20 -72 -11 -31 -23 -73 -26 -92 -13 -88 -107 -409 -149 -509 -30
-72 -148 -275 -175 -301 -3 -3 -20 -22 -37 -43 -117 -135 -304 -243 -508 -293
-212 -51 -407 -41 -617 32 -179 62 -297 136 -299 188 -4 120 -7 135 -29 167
-27 38 -88 99 -101 99 -19 0 -201 93 -230 117 -37 32 -55 71 -65 139 -3 27 -8
60 -10 74 -2 14 -6 81 -10 151 -8 145 -5 154 64 201 105 72 142 123 142 195 0
51 -21 80 -113 153 -42 34 -77 67 -77 73 0 6 49 61 109 121 l109 111 32 103
32 103 61 39 c48 30 103 50 246 90 102 29 217 58 255 65 83 14 303 17 396 4z"/>
<path d="M791 2024 c-113 -104 -150 -208 -97 -272 14 -16 56 -50 93 -75 135
-93 140 -103 88 -182 -41 -62 -54 -120 -35 -165 21 -51 85 -50 143 4 12 11 56
50 97 85 92 78 113 111 107 168 -6 54 -12 62 -123 144 -96 71 -114 98 -108
154 11 90 11 115 -2 141 -38 72 -83 72 -163 -2z"/>
<path d="M1518 2047 c-106 -107 -141 -161 -140 -218 1 -57 26 -99 85 -147 116
-92 128 -119 87 -197 -21 -41 -26 -107 -11 -148 5 -13 24 -30 41 -37 28 -12
36 -11 67 5 32 17 50 36 129 133 107 131 104 163 -32 296 l-77 74 0 103 c0
115 -7 141 -44 158 -41 19 -71 13 -105 -22z"/>
<path d="M1804 1155 c-16 -7 -41 -24 -56 -38 -35 -33 -30 -70 17 -114 30 -29
33 -37 25 -63 -10 -36 -88 -174 -112 -200 -10 -11 -18 -23 -18 -27 0 -15 -45
-60 -86 -86 -67 -42 -214 -82 -294 -80 -40 1 -157 54 -275 124 -44 26 -134 73
-199 106 -92 45 -124 66 -142 93 -40 61 -38 130 4 130 45 1 79 73 51 107 -23
27 -91 53 -139 53 -89 0 -210 -85 -210 -148 0 -40 31 -72 69 -72 37 0 58 -20
71 -68 24 -90 96 -156 249 -229 53 -25 128 -65 166 -88 176 -106 250 -133 375
-136 141 -4 236 22 347 94 95 62 120 93 210 252 43 78 83 149 88 158 6 9 24
17 40 18 106 5 123 64 45 152 -49 56 -165 88 -226 62z"/>
</g>
</svg>
